<svg width="27" height="21" viewBox="0 0 27 21" fill="none" xmlns="http://www.w3.org/2000/svg">
<g clip-path="url(#clip0)">
<path d="M26.0817 6.74773C25.834 6.58846 20.19 3.05837 18.9493 2.29109C17.7837 1.56643 15.7906 0 13.5 0C11.2216 0 9.24771 1.54699 8.05069 2.29109C6.76065 3.08885 1.1388 6.60573 0.923643 6.7433C0.63485 6.928 0.402245 7.16016 0.242544 7.4231C0.0828427 7.68604 1.06048e-05 7.97323 0 8.26403L0 19.0312C0 20.1186 1.13326 21 2.53125 21H24.4688C25.8667 21 27 20.1186 27 19.0312V8.26502C27 7.97512 26.9177 7.68881 26.7589 7.42652C26.6002 7.16423 26.3689 6.93245 26.0817 6.74773ZM24.4688 18.7852C24.4688 18.8504 24.4354 18.913 24.3761 18.9592C24.3167 19.0053 24.2363 19.0312 24.1523 19.0312H2.84766C2.76374 19.0312 2.68326 19.0053 2.62392 18.9592C2.56459 18.913 2.53125 18.8504 2.53125 18.7852V8.38142C2.53125 8.30706 2.57428 8.2368 2.64864 8.19008C3.48553 7.66451 8.38577 4.599 9.62877 3.83041C10.5867 3.23531 12.2554 1.96875 13.5 1.96875C14.7494 1.96875 16.4456 3.25537 17.3712 3.83041C18.6143 4.59908 23.5149 7.66508 24.3515 8.19103C24.3881 8.21408 24.4177 8.24322 24.438 8.27631C24.4583 8.30941 24.4688 8.34562 24.4688 8.38228V18.7852V18.7852ZM22.7817 11.0864C23.0058 11.298 22.9644 11.6112 22.6897 11.7828C21.1617 12.7378 19.5639 13.7351 18.9493 14.1151C17.7523 14.8593 15.7784 16.4062 13.5 16.4062C11.2086 16.4062 9.21338 14.8379 8.05069 14.1151C7.4559 13.7473 5.84935 12.7447 4.3104 11.7828C4.03566 11.611 3.99437 11.2979 4.21838 11.0863L5.023 10.3263C5.24333 10.1183 5.63773 10.0867 5.90783 10.2555C7.41698 11.1989 8.99627 12.1847 9.62877 12.5758C10.5544 13.1509 12.2506 14.4375 13.5 14.4375C14.7446 14.4375 16.4134 13.1709 17.3712 12.5758C18.0037 12.1848 19.5831 11.1989 21.0923 10.2557C21.3624 10.0868 21.7568 10.1184 21.9771 10.3265L22.7817 11.0864V11.0864Z" fill="white"/>
</g>
<defs>
<clipPath id="clip0">
<rect width="27" height="21" fill="white"/>
</clipPath>
</defs>
</svg>
