<?xml version="1.0" encoding="UTF-8" standalone="no"?>
<svg
   xmlns:dc="http://purl.org/dc/elements/1.1/"
   xmlns:cc="http://creativecommons.org/ns#"
   xmlns:rdf="http://www.w3.org/1999/02/22-rdf-syntax-ns#"
   xmlns:svg="http://www.w3.org/2000/svg"
   xmlns="http://www.w3.org/2000/svg"
   viewBox="0 0 297.63779 419.52759"
   id="svg9"
   height="419.52759"
   width="297.63779"
   version="1.1">
  <metadata
     id="metadata15">
    <rdf:RDF>
      <cc:Work
         rdf:about="">
        <dc:format>image/svg+xml</dc:format>
        <dc:type
           rdf:resource="http://purl.org/dc/dcmitype/StillImage" />
      </cc:Work>
    </rdf:RDF>
  </metadata>
  <defs
     id="defs13" />
  <g
     id="Layer1000">
    <path
       id="path2"
       style="fill:#1b1918;fill-rule:evenodd"
       d="m 190.9951,182.8986 c 2.6161,0 4.7366,2.1205 4.7366,4.7366 0,2.6161 -2.1205,4.7366 -4.7366,4.7366 -2.6161,0 -4.7367,-2.1205 -4.7367,-4.7366 0,-2.6161 2.1206,-4.7366 4.7367,-4.7366 z m 2e-4,-0.9236 c 3.1261,0 5.6602,2.5342 5.6602,5.6602 0,3.1263 -2.5341,5.6604 -5.6602,5.6604 -3.1263,0 -5.6604,-2.5341 -5.6604,-5.6604 0,-3.126 2.5341,-5.6602 5.6604,-5.6602 z m -1.1936,5.0313 h 0.9137 c 0.5922,0 0.9608,-0.0263 1.1089,-0.078 0.1465,-0.0517 0.2634,-0.1417 0.3456,-0.2689 0.0842,-0.1266 0.1253,-0.2861 0.1253,-0.4766 0,-0.214 -0.0553,-0.3854 -0.1651,-0.5182 -0.1094,-0.1313 -0.2645,-0.2141 -0.4637,-0.2479 -0.1011,-0.0147 -0.4015,-0.022 -0.9011,-0.022 h -0.9636 z m -1.2381,3.6578 v -6.341 h 2.6 c 0.6537,0 1.1291,0.0573 1.425,0.1711 0.2973,0.1137 0.5338,0.3158 0.7116,0.6066 0.1776,0.2924 0.2673,0.6245 0.2673,0.9993 0,0.4769 -0.1337,0.8693 -0.4027,1.1794 -0.2686,0.31 -0.67,0.5048 -1.2053,0.586 0.2662,0.161 0.4849,0.3378 0.6575,0.5314 0.1737,0.1934 0.4069,0.5374 0.7003,1.0303 l 0.7457,1.2369 h -1.4759 l -0.8853,-1.3845 c -0.3174,-0.4916 -0.5351,-0.8018 -0.6535,-0.93 -0.1165,-0.1269 -0.2401,-0.2155 -0.3711,-0.2628 -0.1324,-0.0471 -0.3402,-0.0709 -0.6251,-0.0709 h -0.2504 v 2.6482 z" />
    <path
       id="path4"
       style="fill:#1b1918;fill-rule:evenodd"
       d="m 148.8192,186.7312 c 23.5493,0 42.6394,10.8501 42.6394,24.2345 0,13.3844 -19.0901,24.2344 -42.6394,24.2344 -23.5496,0 -42.6397,-10.85 -42.6397,-24.2344 0,-13.3844 19.0901,-24.2345 42.6397,-24.2345 z m -3e-4,-2.3522 c 26.4193,0 47.8366,11.9032 47.8366,26.5864 0,14.6841 -21.4173,26.5872 -47.8366,26.5872 -26.4193,0 -47.8366,-11.9031 -47.8366,-26.5872 0,-14.6832 21.4173,-26.5864 47.8366,-26.5864 z" />
    <path
       id="path6"
       style="fill:#1b1918;fill-rule:evenodd"
       d="m 172.0241,208.7224 h 2.0713 c 0.4074,0 0.6637,0.0571 0.77,0.171 0.1066,0.1138 0.1594,0.2912 0.1594,0.5322 v 3.8753 c 0,0.1206 0.0222,0.2145 0.0664,0.2816 0.0445,0.0668 0.1547,0.1006 0.3317,0.1006 h 2.8941 c 0.0887,0 0.1508,-0.007 0.186,-0.0206 0.1594,-0.0667 0.2391,-0.2005 0.2391,-0.4014 v -3.8355 c 0,-0.241 0.0355,-0.4021 0.1062,-0.4821 0.1415,-0.1474 0.4164,-0.2211 0.8235,-0.2211 h 2.0713 c 0.4061,0 0.6634,0.0571 0.7697,0.171 0.1056,0.1138 0.1594,0.2912 0.1594,0.5322 v 12.6517 c 0,0.241 -0.0362,0.4014 -0.1063,0.4818 -0.1421,0.1474 -0.4167,0.2211 -0.8228,0.2211 h -2.0713 c -0.4071,0 -0.6644,-0.0571 -0.7707,-0.171 -0.1059,-0.1139 -0.159,-0.2909 -0.159,-0.5319 v -5.2613 c 0,-0.2148 -0.1415,-0.3214 -0.4251,-0.3214 h -2.8941 c -0.2653,0 -0.3981,0.1002 -0.3981,0.3008 v 5.2819 c 0,0.3081 -0.0757,0.502 -0.2255,0.5824 -0.1504,0.08 -0.3852,0.1205 -0.7039,0.1205 h -2.0713 c -0.3188,0 -0.5306,-0.0265 -0.6372,-0.0803 -0.1943,-0.1073 -0.2919,-0.3145 -0.2919,-0.6226 v -12.6517 c 0,-0.241 0.0352,-0.4021 0.1059,-0.4821 0.1418,-0.1474 0.4161,-0.2211 0.8232,-0.2211 z m -15.2483,13.2742 v -1.8067 c 0,-0.161 0.0624,-0.2716 0.1856,-0.332 0.1285,-0.0601 0.2523,-0.09 0.3762,-0.09 0.1421,0 0.3105,0.0199 0.4961,0.0601 0.1856,0.0398 0.323,0.0671 0.4154,0.0803 0.3015,0.0668 0.757,0.1339 1.363,0.2006 0.607,0.0671 1.0895,0.1009 1.4477,0.1009 0.783,0 1.4026,-0.1241 1.8585,-0.3719 0.4559,-0.2473 0.6817,-0.5853 0.6817,-1.014 0,-0.6292 -0.514,-1.2183 -1.5404,-1.7668 -0.7434,-0.362 -1.2926,-0.6299 -1.6459,-0.8036 -1.3103,-0.6561 -2.2045,-1.212 -2.6816,-1.6669 -0.6379,-0.6026 -0.9563,-1.3524 -0.9563,-2.2493 0,-1.2318 0.5492,-2.1692 1.6463,-2.8117 1.0974,-0.6425 2.5843,-0.9636 4.461,-0.9636 0.8142,0 1.6191,0.0538 2.4163,0.1604 1.2037,0.1607 1.8054,0.3951 1.8054,0.7032 v 1.807 c 0,0.0535 0,0.1006 0,0.1408 -0.0535,0.1604 -0.2039,0.2411 -0.4516,0.2411 l -1.2747,-0.1807 c -0.7256,-0.1072 -1.1811,-0.171 -1.3671,-0.1909 -0.1859,-0.0202 -0.4645,-0.0302 -0.8367,-0.0302 -0.7256,0 -1.2522,0.0867 -1.5799,0.261 -0.3274,0.174 -0.4915,0.3882 -0.4915,0.6428 0,0.4553 1.0005,1.1712 3.0011,2.1487 1.1685,0.5891 2.0178,1.1446 2.5488,1.6669 0.8497,0.8301 1.2744,1.8073 1.2744,2.9316 0,1.2591 -0.5837,2.2526 -1.7476,2.9825 -1.1641,0.7298 -2.7616,1.0947 -4.7884,1.0947 -0.6598,0 -1.4076,-0.0368 -2.2394,-0.1105 -0.8361,-0.0734 -1.4517,-0.1707 -1.8405,-0.2913 -0.2351,-0.067 -0.3812,-0.147 -0.4433,-0.241 -0.0621,-0.0937 -0.0926,-0.1943 -0.0926,-0.3015 z m -13.9474,0.0807 v -12.6517 c 0,-0.241 0.0352,-0.4021 0.1059,-0.4821 0.1418,-0.1474 0.4161,-0.2211 0.8235,-0.2211 h 8.709 c 0.4071,0 0.6637,0.0571 0.7703,0.171 0.106,0.1138 0.1591,0.2912 0.1591,0.5322 v 1.4255 c 0,0.1474 -0.0664,0.2646 -0.1993,0.3516 -0.1324,0.087 -0.3406,0.1305 -0.6235,0.1305 h -5.3374 c -0.3191,0 -0.4785,0.1073 -0.4785,0.3211 v 2.1089 c 0,0.241 0.0983,0.3616 0.2929,0.3616 h 4.1954 c 0.177,0 0.3231,0.0332 0.438,0.1002 0.1149,0.0668 0.1723,0.1607 0.1723,0.2813 v 1.8276 c 0,0.2673 -0.1766,0.4011 -0.5306,0.4011 h -4.222 c -0.2301,0 -0.346,0.1142 -0.346,0.342 v 2.8513 c 0,0.1607 0.0983,0.241 0.2929,0.241 h 5.9739 c 0.3012,0 0.4957,0.0435 0.5841,0.1305 0.0886,0.0874 0.1334,0.2112 0.1334,0.3716 v 1.4059 c 0,0.241 -0.0362,0.4014 -0.1069,0.4818 -0.1414,0.1474 -0.416,0.2211 -0.8228,0.2211 h -9.0543 c -0.3191,0 -0.5309,-0.0265 -0.6378,-0.0803 -0.194,-0.1073 -0.2916,-0.3145 -0.2916,-0.6226 z m -11.0539,-10.4429 v 2.4502 c 0,0.2005 0.1242,0.3011 0.3719,0.3011 h 1.2482 c 0.7435,0 1.3365,-0.1404 1.7788,-0.4217 0.4429,-0.2809 0.6641,-0.6557 0.6641,-1.1246 0,-0.4287 -0.1687,-0.7763 -0.5051,-1.0443 -0.4246,-0.3347 -1.0705,-0.5024 -1.9378,-0.5024 h -1.1685 c -0.3008,0 -0.4516,0.1139 -0.4516,0.3417 z m -3,-2.912 h 4.9116 c 2.249,0 3.9302,0.4349 5.0455,1.3052 0.9025,0.6963 1.3541,1.5733 1.3541,2.6308 0,0.9643 -0.3008,1.7672 -0.9025,2.4104 -0.4781,0.5219 -1.0709,0.8769 -1.7794,1.0642 -0.1594,0.0265 -0.2381,0.087 -0.2381,0.1809 0,0.0801 0.0435,0.1873 0.1325,0.3211 l 3.3185,5.422 c 0.0534,0.1073 0.08,0.2012 0.08,0.2813 0,0.2948 -0.2122,0.4419 -0.6369,0.4419 h -2.7616 c -0.3902,0 -0.6641,-0.0604 -0.8235,-0.181 -0.0528,-0.0401 -0.1149,-0.1205 -0.186,-0.241 l -3.1594,-5.2211 c -0.1245,-0.1876 -0.3098,-0.2816 -0.5575,-0.2816 h -0.5044 c -0.1946,0 -0.2929,0.081 -0.2929,0.2414 v 4.9804 c 0,0.3081 -0.075,0.502 -0.2247,0.5824 -0.1511,0.08 -0.3856,0.1205 -0.7043,0.1205 h -2.071 c -0.3188,0 -0.531,-0.0265 -0.6379,-0.0803 -0.1946,-0.1073 -0.2912,-0.3145 -0.2912,-0.6226 v -12.6517 c 0,-0.241 0.0352,-0.4021 0.1059,-0.4821 0.1418,-0.1474 0.4161,-0.2211 0.8232,-0.2211 z m -13.7086,13.3549 v -12.6517 c 0,-0.241 0.0352,-0.4021 0.1063,-0.4821 0.1417,-0.1474 0.4157,-0.2211 0.8234,-0.2211 h 8.4171 c 0.4071,0 0.6638,0.0571 0.7697,0.171 0.1063,0.1138 0.1594,0.2912 0.1594,0.5322 v 1.546 c 0,0.1475 -0.0664,0.2643 -0.1989,0.3517 -0.1328,0.0866 -0.3407,0.1305 -0.6243,0.1305 h -5.0448 c -0.3187,0 -0.4784,0.1072 -0.4784,0.3211 v 2.1088 c 0,0.2411 0.0979,0.3616 0.2925,0.3616 h 4.1957 c 0.177,0 0.3231,0.0332 0.438,0.1003 0.1149,0.0667 0.1723,0.1607 0.1723,0.2812 v 1.8276 c 0,0.2676 -0.1773,0.4011 -0.5306,0.4011 h -4.222 c -0.2304,0 -0.3459,0.1139 -0.3459,0.3417 v 4.8801 c 0,0.3081 -0.0748,0.502 -0.2248,0.5824 -0.1508,0.08 -0.3852,0.1205 -0.7043,0.1205 h -2.0707 c -0.3187,0 -0.5309,-0.0265 -0.6378,-0.0803 -0.1946,-0.1073 -0.2919,-0.3145 -0.2919,-0.6226 z m 49.9918,-18.8978 v 1.5905 c 0,0.2145 -0.0644,0.3516 -0.1916,0.4114 -0.1278,0.0594 -0.3032,0.0893 -0.5246,0.0893 h -2.2765 c -0.3065,0 -0.5031,-0.0448 -0.5881,-0.1345 -0.0853,-0.0889 -0.1282,-0.2111 -0.1282,-0.3662 v -1.5905 c 0,-0.2145 0.0648,-0.3516 0.1923,-0.4114 0.1278,-0.0594 0.3028,-0.0893 0.524,-0.0893 h 2.2765 c 0.3071,0 0.5034,0.0445 0.588,0.1338 0.0854,0.0896 0.1282,0.2118 0.1282,0.3669 z m -7.4674,-2.9496 v 4.5401 c 0,0.2145 -0.0641,0.3516 -0.1923,0.4114 -0.1278,0.0594 -0.3021,0.0893 -0.5243,0.0893 h -2.0457 c -0.3068,0 -0.5031,-0.0448 -0.5884,-0.1345 -0.085,-0.0889 -0.1275,-0.2111 -0.1275,-0.3662 v -8.9377 c 0,-0.2145 0.0634,-0.3516 0.1909,-0.4107 0.1239,-0.0598 0.2992,-0.09 0.52,-0.09 h 2.3107 c 0.3032,0 0.4566,0.0836 0.4566,0.2507 v 0.1965 c 0,0.0479 0.0425,0.0953 0.1275,0.1432 l 0.3626,-0.1608 c 0.3576,-0.1909 0.6525,-0.3217 0.8736,-0.3934 0.3968,-0.1192 0.8779,-0.1787 1.4447,-0.1787 0.2564,0 0.4486,0.0269 0.5801,0.0804 0.1285,0.0538 0.1923,0.17 0.1923,0.3483 v 1.7339 c 0,0.1435 -0.0638,0.2385 -0.1923,0.2863 -0.1278,0.0475 -0.2683,0.0717 -0.4213,0.0717 h -0.4865 c -0.4094,0 -0.7332,0.0355 -0.9726,0.1072 -0.238,0.0711 -0.4771,0.1903 -0.7152,0.3573 -0.3755,0.2623 -0.6017,0.5479 -0.6784,0.8577 -0.0767,0.3101 -0.1145,0.7089 -0.1145,1.198 z m -15.9599,-2.145 v 6.5603 c 0,0.2739 -0.0727,0.4466 -0.2172,0.5183 -0.1454,0.0717 -0.3709,0.1072 -0.6777,0.1072 h -1.9953 c -0.3068,0 -0.5113,-0.0239 -0.6136,-0.0717 -0.1876,-0.0953 -0.2809,-0.2799 -0.2809,-0.5538 v -11.2617 c 0,-0.2145 0.0335,-0.3577 0.1013,-0.429 0.1368,-0.1312 0.4018,-0.1966 0.7932,-0.1966 h 2.2766 c 0.256,0 0.4775,0.0597 0.6647,0.179 0.1026,0.0594 0.188,0.1427 0.256,0.25 l 2.762,3.8614 c 0.0349,0.0591 0.0814,0.1245 0.1411,0.1962 0.0591,0.0717 0.1149,0.1072 0.1654,0.1072 0.0691,0 0.1325,-0.0444 0.1922,-0.1338 0.0601,-0.0896 0.0897,-0.1401 0.0897,-0.1524 l 2.7623,-3.8252 c 0.1361,-0.1786 0.2809,-0.3034 0.4353,-0.3752 0.1531,-0.0717 0.3317,-0.1072 0.5369,-0.1072 h 2.1484 c 0.3915,0 0.6392,0.0508 0.7411,0.1521 0.1026,0.1012 0.1534,0.259 0.1534,0.4735 v 11.2617 c 0,0.2739 -0.0717,0.4466 -0.2168,0.5183 -0.1448,0.0717 -0.3712,0.1072 -0.6777,0.1072 h -1.995 c -0.3924,0 -0.6395,-0.0508 -0.7421,-0.1517 -0.1026,-0.1016 -0.1534,-0.2593 -0.1534,-0.4738 v -6.3637 c -0.0339,-0.0717 -0.0677,-0.1073 -0.1026,-0.1073 l -0.0767,0.0356 -1.9949,3.3606 c -0.1016,0.1906 -0.2039,0.3158 -0.3068,0.3752 -0.1026,0.0598 -0.2302,0.0897 -0.3836,0.0897 h -0.8696 c -0.2902,0 -0.5203,-0.1551 -0.6907,-0.4649 l -2.0457,-3.5034 c -0.0684,0.0119 -0.1282,0.0179 -0.1793,0.0179 z" />
  </g>
</svg>
