<svg width="129" height="75" viewBox="0 0 129 75" fill="none" xmlns="http://www.w3.org/2000/svg">
<path fill-rule="evenodd" clip-rule="evenodd" d="M121.264 1.11837C124.788 1.11837 127.645 3.68603 127.645 6.85382C127.645 10.0216 124.788 12.5893 121.264 12.5893C117.739 12.5893 114.882 10.0216 114.882 6.85382C114.882 3.68603 117.739 1.11837 121.264 1.11837ZM121.264 0C125.475 0 128.889 3.0686 128.889 6.85382C128.889 10.6394 125.475 13.7079 121.264 13.7079C117.052 13.7079 113.638 10.6394 113.638 6.85382C113.638 3.0686 117.052 0 121.264 0ZM119.656 6.0923H120.887C121.685 6.0923 122.181 6.06045 122.381 5.99785C122.578 5.93525 122.735 5.82626 122.846 5.67224C122.96 5.51894 123.015 5.32581 123.015 5.09514C123.015 4.83601 122.94 4.62846 122.793 4.46766C122.645 4.30867 122.436 4.20841 122.168 4.16749C122.032 4.14969 121.627 4.14084 120.954 4.14084H119.656V6.0923ZM117.988 10.5215V2.84327H121.491C122.371 2.84327 123.012 2.91265 123.41 3.05045C123.811 3.18812 124.129 3.43284 124.369 3.78497C124.608 4.13903 124.729 4.54116 124.729 4.995C124.729 5.57247 124.549 6.04761 124.186 6.42311C123.825 6.79848 123.284 7.03436 122.563 7.13268C122.921 7.32763 123.216 7.54172 123.449 7.77615C123.683 8.01033 123.997 8.42688 124.392 9.02372L125.397 10.5215H123.408L122.216 8.845C121.788 8.24973 121.495 7.87411 121.335 7.71887C121.178 7.56521 121.012 7.45794 120.835 7.40067C120.657 7.34363 120.377 7.31481 119.993 7.31481H119.656V10.5215H117.988Z" fill="#F0ECFF"/>
<path fill-rule="evenodd" clip-rule="evenodd" d="M64.5004 6.18501C96.2529 6.18501 121.993 20.8766 121.993 38.9998C121.993 57.123 96.2529 71.8145 64.5004 71.8145C32.7475 71.8145 7.00759 57.123 7.00759 38.9998C7.00759 20.8766 32.7475 6.18501 64.5004 6.18501ZM64.5 3C100.122 3 129 19.1176 129 38.9994C129 58.8824 100.122 74.9999 64.5 74.9999C28.8778 74.9999 0 58.8824 0 38.9994C0 19.1176 28.8778 3 64.5 3Z" fill="#F0ECFF"/>
<path fill-rule="evenodd" clip-rule="evenodd" d="M95.4272 35.7437H98.1938C98.7379 35.7437 99.0803 35.825 99.2223 35.9873C99.3647 36.1494 99.4352 36.4021 99.4352 36.7455V42.2664C99.4352 42.4382 99.4648 42.572 99.5239 42.6676C99.5833 42.7627 99.7305 42.8109 99.9669 42.8109H103.832C103.951 42.8109 104.034 42.8009 104.081 42.7815C104.294 42.6865 104.4 42.4959 104.4 42.2097V36.7455C104.4 36.4021 104.448 36.1726 104.542 36.0586C104.731 35.8487 105.098 35.7437 105.642 35.7437H108.409C108.951 35.7437 109.295 35.825 109.437 35.9873C109.578 36.1494 109.65 36.4021 109.65 36.7455V54.7696C109.65 55.1129 109.601 55.3414 109.508 55.456C109.318 55.666 108.951 55.771 108.409 55.771H105.642C105.098 55.771 104.755 55.6896 104.613 55.5274C104.471 55.3651 104.4 55.1129 104.4 54.7696V47.2741C104.4 46.9681 104.211 46.8162 103.832 46.8162H99.9669C99.6125 46.8162 99.4352 46.959 99.4352 47.2448V54.7696C99.4352 55.2085 99.3341 55.4848 99.134 55.5993C98.9331 55.7133 98.6195 55.771 98.1938 55.771H95.4272C95.0014 55.771 94.7185 55.7332 94.5761 55.6566C94.3166 55.5037 94.1862 55.2085 94.1862 54.7696V36.7455C94.1862 36.4021 94.2333 36.1726 94.3277 36.0586C94.5171 35.8487 94.8835 35.7437 95.4272 35.7437ZM75.0605 54.6546V52.0807C75.0605 51.8514 75.1438 51.6938 75.3083 51.6077C75.48 51.5221 75.6453 51.4795 75.8108 51.4795C76.0006 51.4795 76.2256 51.5079 76.4735 51.5652C76.7214 51.6219 76.9049 51.6607 77.0283 51.6795C77.431 51.7747 78.0394 51.8703 78.8488 51.9653C79.6596 52.0609 80.304 52.1091 80.7825 52.1091C81.8283 52.1091 82.6559 51.9323 83.2648 51.5793C83.8738 51.2269 84.1754 50.7454 84.1754 50.1347C84.1754 49.2383 83.4888 48.399 82.1179 47.6176C81.125 47.1019 80.3914 46.7202 79.9195 46.4728C78.1694 45.5381 76.975 44.7461 76.3378 44.098C75.4857 43.2395 75.0605 42.1714 75.0605 40.8936C75.0605 39.1387 75.794 37.8033 77.2594 36.8879C78.7251 35.9726 80.7112 35.5151 83.2178 35.5151C84.3053 35.5151 85.3804 35.5918 86.4452 35.7437C88.0529 35.9726 88.8566 36.3065 88.8566 36.7455V39.3198C88.8566 39.396 88.8566 39.4631 88.8566 39.5204C88.7852 39.7489 88.5843 39.8639 88.2534 39.8639L86.5508 39.6064C85.5817 39.4537 84.9733 39.3628 84.7249 39.3345C84.4766 39.3057 84.1044 39.2915 83.6073 39.2915C82.6381 39.2915 81.9348 39.415 81.4971 39.6633C81.0598 39.9112 80.8406 40.2163 80.8406 40.579C80.8406 41.2277 82.1769 42.2476 84.8491 43.6402C86.4098 44.4794 87.5442 45.2708 88.2534 46.0149C89.3884 47.1975 89.9556 48.5896 89.9556 50.1914C89.9556 51.9851 89.176 53.4005 87.6214 54.4404C86.0665 55.4801 83.9328 55.9999 81.2257 55.9999C80.3444 55.9999 79.3456 55.9475 78.2346 55.8425C77.1178 55.7379 76.2956 55.5993 75.7762 55.4275C75.4622 55.332 75.2671 55.2181 75.1841 55.0841C75.1012 54.9507 75.0605 54.8073 75.0605 54.6546ZM56.4313 54.7696V36.7455C56.4313 36.4021 56.4783 36.1726 56.5727 36.0586C56.7621 35.8487 57.1285 35.7437 57.6726 35.7437H69.305C69.8488 35.7437 70.1915 35.825 70.3339 35.9873C70.4755 36.1494 70.5464 36.4021 70.5464 36.7455V38.7763C70.5464 38.9863 70.4577 39.1533 70.2802 39.2772C70.1034 39.4011 69.8253 39.4631 69.4474 39.4631H62.3184C61.8922 39.4631 61.6793 39.616 61.6793 39.9206V42.925C61.6793 43.2683 61.8106 43.4401 62.0705 43.4401H67.6742C67.9106 43.4401 68.1057 43.4874 68.2592 43.5829C68.4127 43.6781 68.4893 43.8118 68.4893 43.9836V46.5873C68.4893 46.9681 68.2535 47.1587 67.7806 47.1587H62.1414C61.8341 47.1587 61.6793 47.3214 61.6793 47.646V51.708C61.6793 51.937 61.8106 52.0514 62.0705 52.0514H70.0497C70.452 52.0514 70.7118 52.1134 70.8298 52.2373C70.9482 52.3618 71.008 52.5382 71.008 52.7667V54.7696C71.008 55.1129 70.9597 55.3414 70.8652 55.456C70.6764 55.666 70.3096 55.771 69.7662 55.771H57.6726C57.2464 55.771 56.9635 55.7332 56.8207 55.6566C56.5616 55.5037 56.4313 55.2085 56.4313 54.7696ZM41.6669 39.8922V43.3829C41.6669 43.6685 41.8327 43.8118 42.1636 43.8118H43.8308C44.8239 43.8118 45.6159 43.6118 46.2067 43.2111C46.7983 42.8109 47.0937 42.2769 47.0937 41.6089C47.0937 40.9982 46.8684 40.503 46.419 40.1212C45.8519 39.6443 44.9892 39.4054 43.8308 39.4054H42.2701C41.8683 39.4054 41.6669 39.5677 41.6669 39.8922ZM37.6598 35.7437H44.2201C47.2241 35.7437 49.4696 36.3632 50.9593 37.6031C52.1647 38.5951 52.7679 39.8445 52.7679 41.3511C52.7679 42.7248 52.3661 43.8687 51.5625 44.785C50.9239 45.5285 50.1321 46.0343 49.1858 46.3011C48.9729 46.3389 48.8677 46.4251 48.8677 46.5588C48.8677 46.6729 48.9258 46.8256 49.0447 47.0163L53.4772 54.7407C53.5485 54.8935 53.584 55.0273 53.584 55.1414C53.584 55.5614 53.3006 55.771 52.7333 55.771H49.0447C48.5235 55.771 48.1577 55.6849 47.9448 55.5131C47.8743 55.456 47.7913 55.3414 47.6964 55.1698L43.4764 47.7316C43.3101 47.4643 43.0626 47.3304 42.7318 47.3304H42.0581C41.7981 47.3304 41.6669 47.4458 41.6669 47.6743V54.7696C41.6669 55.2085 41.5667 55.4848 41.3667 55.5993C41.1649 55.7133 40.8517 55.771 40.426 55.771H37.6598C37.234 55.771 36.9506 55.7332 36.8078 55.6566C36.5479 55.5037 36.4189 55.2085 36.4189 54.7696V36.7455C36.4189 36.4021 36.4659 36.1726 36.5603 36.0586C36.7497 35.8487 37.1161 35.7437 37.6598 35.7437ZM19.3496 54.7696V36.7455C19.3496 36.4021 19.3966 36.1726 19.4916 36.0586C19.6809 35.8487 20.0468 35.7437 20.5914 35.7437H31.8339C32.3776 35.7437 32.7205 35.825 32.862 35.9873C33.0039 36.1494 33.0749 36.4021 33.0749 36.7455V38.948C33.0749 39.1581 32.9862 39.3245 32.8092 39.449C32.6318 39.5724 32.3541 39.6349 31.9753 39.6349H25.2371C24.8114 39.6349 24.5981 39.7877 24.5981 40.0924V43.0967C24.5981 43.4401 24.7289 43.6118 24.9888 43.6118H30.5929C30.8293 43.6118 31.0245 43.6591 31.1779 43.7547C31.3314 43.8497 31.4081 43.9836 31.4081 44.1553V46.759C31.4081 47.1402 31.1713 47.3304 30.6994 47.3304H25.0601C24.7524 47.3304 24.5981 47.4927 24.5981 47.8172V54.7696C24.5981 55.2085 24.4982 55.4848 24.2979 55.5993C24.0965 55.7133 23.7834 55.771 23.3572 55.771H20.5914C20.1657 55.771 19.8823 55.7332 19.7395 55.6566C19.4796 55.5037 19.3496 55.2085 19.3496 54.7696ZM86.1224 27.847V30.1129C86.1224 30.4185 86.0364 30.6138 85.8665 30.699C85.6958 30.7836 85.4615 30.8262 85.1658 30.8262H82.1251C81.7157 30.8262 81.4531 30.7624 81.3396 30.6346C81.2257 30.508 81.1684 30.3339 81.1684 30.1129V27.847C81.1684 27.5414 81.2549 27.3461 81.4252 27.2609C81.5959 27.1763 81.8297 27.1337 82.1251 27.1337H85.1658C85.576 27.1337 85.8382 27.1971 85.9511 27.3243C86.0652 27.452 86.1224 27.6261 86.1224 27.847ZM76.1484 23.6449V30.1129C76.1484 30.4185 76.0627 30.6138 75.8915 30.699C75.7208 30.7836 75.488 30.8262 75.1912 30.8262H72.4588C72.049 30.8262 71.7868 30.7624 71.6729 30.6346C71.5594 30.508 71.5026 30.3339 71.5026 30.1129V17.3799C71.5026 17.0743 71.5873 16.879 71.7576 16.7948C71.9231 16.7096 72.1572 16.6666 72.4521 16.6666H75.5385C75.9435 16.6666 76.1484 16.7857 76.1484 17.0238V17.3037C76.1484 17.3719 76.2051 17.4395 76.3187 17.5077L76.803 17.2786C77.2806 17.0067 77.6745 16.8203 77.9698 16.7182C78.4998 16.5483 79.1424 16.4636 79.8995 16.4636C80.2419 16.4636 80.4987 16.5019 80.6743 16.5781C80.8459 16.6548 80.9311 16.8203 80.9311 17.0743V19.5445C80.9311 19.7489 80.8459 19.8843 80.6743 19.9524C80.5036 20.0201 80.3159 20.0545 80.1116 20.0545H79.4618C78.9149 20.0545 78.4825 20.1051 78.1627 20.2072C77.8448 20.3085 77.5254 20.4784 77.2074 20.7163C76.7059 21.0899 76.4037 21.4968 76.3013 21.9382C76.1989 22.38 76.1484 22.9481 76.1484 23.6449ZM54.8311 20.5891V29.9351C54.8311 30.3253 54.734 30.5714 54.541 30.6735C54.3468 30.7757 54.0456 30.8262 53.6358 30.8262H50.9708C50.561 30.8262 50.2878 30.7922 50.1512 30.7241C49.9006 30.5883 49.776 30.3253 49.776 29.9351V13.8912C49.776 13.5857 49.8208 13.3817 49.9113 13.2801C50.094 13.0932 50.448 13 50.9708 13H54.0116C54.3535 13 54.6493 13.0851 54.8994 13.255C55.0364 13.3396 55.1505 13.4583 55.2413 13.6112L58.9304 19.1123C58.9771 19.1965 59.0392 19.2896 59.1189 19.3918C59.1979 19.4939 59.2724 19.5445 59.3398 19.5445C59.4321 19.5445 59.5168 19.4812 59.5965 19.3539C59.6768 19.2262 59.7164 19.1543 59.7164 19.1368L63.4059 13.6872C63.5877 13.4328 63.7811 13.255 63.9873 13.1527C64.1918 13.0506 64.4304 13 64.7044 13H67.574C68.0969 13 68.4278 13.0724 68.5639 13.2167C68.7009 13.3609 68.7688 13.5857 68.7688 13.8912V29.9351C68.7688 30.3253 68.673 30.5714 68.4792 30.6735C68.2858 30.7757 67.9834 30.8262 67.574 30.8262H64.9093C64.3852 30.8262 64.0552 30.7539 63.9181 30.6101C63.7811 30.4654 63.7132 30.2407 63.7132 29.9351V20.8691C63.668 20.767 63.6228 20.7163 63.5762 20.7163L63.4737 20.767L60.8092 25.5546C60.6735 25.8262 60.5369 26.0045 60.3994 26.0892C60.2624 26.1744 60.0919 26.2169 59.8871 26.2169H58.7256C58.3379 26.2169 58.0306 25.996 57.803 25.5546L55.0706 20.5636C54.9792 20.5805 54.8994 20.5891 54.8311 20.5891Z" fill="#F0ECFF"/>
</svg>
