<svg width="160" height="101" viewBox="0 0 160 101" fill="none" xmlns="http://www.w3.org/2000/svg">
<g filter="url(#filter0_d)">
<path fill-rule="evenodd" clip-rule="evenodd" d="M146.096 1.38678C150.226 1.38678 153.574 4.57068 153.574 8.49875C153.574 12.4268 150.226 15.6107 146.096 15.6107C141.967 15.6107 138.619 12.4268 138.619 8.49875C138.619 4.57068 141.967 1.38678 146.096 1.38678ZM146.097 0C151.032 0 155.032 3.80507 155.032 8.49875C155.032 13.1929 151.032 16.9978 146.097 16.9978C141.162 16.9978 137.161 13.1929 137.161 8.49875C137.161 3.80507 141.162 0 146.097 0ZM144.213 7.55447H145.655C146.59 7.55447 147.172 7.51498 147.405 7.43735C147.637 7.35972 147.821 7.22458 147.951 7.03359C148.084 6.8435 148.149 6.60402 148.149 6.31799C148.149 5.99667 148.062 5.7393 147.888 5.53991C147.716 5.34276 147.471 5.21844 147.156 5.16769C146.997 5.14562 146.522 5.13465 145.734 5.13465H144.213V7.55447ZM142.258 13.0466V3.52566H146.362C147.394 3.52566 148.145 3.61169 148.612 3.78256C149.081 3.95328 149.455 4.25673 149.735 4.69337C150.016 5.1324 150.157 5.63105 150.157 6.19381C150.157 6.90987 149.946 7.49905 149.522 7.96467C149.098 8.43013 148.464 8.72262 147.619 8.84454C148.039 9.08628 148.384 9.35175 148.657 9.64244C148.931 9.93283 149.299 10.4494 149.762 11.1894L150.94 13.0466H148.61L147.212 10.9678C146.711 10.2297 146.367 9.76391 146.18 9.57142C145.997 9.38088 145.801 9.24787 145.595 9.17684C145.386 9.10612 145.058 9.07038 144.608 9.07038H144.213V13.0466H142.258Z" fill="#5C5967"/>
<path fill-rule="evenodd" clip-rule="evenodd" d="M79.5815 7.66942C116.789 7.66942 146.951 25.887 146.951 48.3598C146.951 70.8326 116.789 89.0501 79.5815 89.0501C42.3735 89.0501 12.2115 70.8326 12.2115 48.3598C12.2115 25.887 42.3735 7.66942 79.5815 7.66942ZM79.581 3.72C121.323 3.72 155.162 23.7058 155.162 48.3593C155.162 73.0144 121.323 93 79.581 93C37.839 93 4 73.0144 4 48.3593C4 23.7058 37.839 3.72 79.581 3.72Z" fill="#5C5967"/>
<path fill-rule="evenodd" clip-rule="evenodd" d="M115.821 44.3222H119.063C119.701 44.3222 120.102 44.4231 120.269 44.6243C120.435 44.8253 120.518 45.1387 120.518 45.5644V52.4104C120.518 52.6234 120.553 52.7893 120.622 52.9078C120.692 53.0259 120.864 53.0856 121.141 53.0856H125.671C125.81 53.0856 125.907 53.0732 125.962 53.0492C126.211 52.9313 126.336 52.695 126.336 52.3401V45.5644C126.336 45.1387 126.392 44.8541 126.502 44.7128C126.724 44.4524 127.154 44.3222 127.791 44.3222H131.033C131.669 44.3222 132.071 44.4231 132.238 44.6243C132.403 44.8253 132.487 45.1387 132.487 45.5644V67.9144C132.487 68.3401 132.431 68.6235 132.321 68.7655C132.098 69.0259 131.669 69.1561 131.033 69.1561H127.791C127.154 69.1561 126.751 69.0552 126.585 68.854C126.419 68.6528 126.336 68.3401 126.336 67.9144V58.62C126.336 58.2405 126.115 58.0522 125.671 58.0522H121.141C120.726 58.0522 120.518 58.2292 120.518 58.5836V67.9144C120.518 68.4587 120.4 68.8012 120.165 68.9432C119.93 69.0846 119.562 69.1561 119.063 69.1561H115.821C115.323 69.1561 114.991 69.1093 114.824 69.0143C114.52 68.8247 114.367 68.4587 114.367 67.9144V45.5644C114.367 45.1387 114.422 44.8541 114.533 44.7128C114.755 44.4524 115.184 44.3222 115.821 44.3222ZM91.9557 67.7718V64.5802C91.9557 64.2958 92.0534 64.1004 92.2462 63.9937C92.4473 63.8875 92.6411 63.8347 92.835 63.8347C93.0574 63.8347 93.321 63.8699 93.6115 63.9409C93.902 64.0112 94.117 64.0594 94.2617 64.0827C94.7335 64.2007 95.4465 64.3193 96.395 64.4371C97.345 64.5556 98.1002 64.6153 98.6608 64.6153C99.8863 64.6153 100.856 64.3961 101.57 63.9584C102.283 63.5215 102.637 62.9244 102.637 62.1671C102.637 61.0556 101.832 60.0149 100.226 59.0459C99.0621 58.4064 98.2025 57.9332 97.6496 57.6263C95.5987 56.4673 94.1992 55.4852 93.4525 54.6816C92.4541 53.6171 91.9557 52.2925 91.9557 50.7081C91.9557 48.5321 92.8153 46.8761 94.5324 45.7411C96.25 44.6061 98.5772 44.0388 101.515 44.0388C102.789 44.0388 104.049 44.1339 105.296 44.3222C107.18 44.6061 108.122 45.0202 108.122 45.5644V48.7566C108.122 48.8511 108.122 48.9343 108.122 49.0053C108.038 49.2887 107.803 49.4313 107.415 49.4313L105.42 49.1121C104.285 48.9227 103.572 48.81 103.28 48.7748C102.99 48.7391 102.553 48.7215 101.971 48.7215C100.835 48.7215 100.011 48.8746 99.4982 49.1825C98.9857 49.4899 98.7289 49.8683 98.7289 50.3181C98.7289 51.1224 100.295 52.3871 103.426 54.1139C105.255 55.1545 106.584 56.1359 107.415 57.0585C108.745 58.525 109.41 60.2512 109.41 62.2374C109.41 64.4616 108.496 66.2167 106.675 67.5062C104.853 68.7954 102.352 69.44 99.1801 69.44C98.1474 69.44 96.977 69.375 95.6751 69.2448C94.3665 69.1151 93.403 68.9432 92.7945 68.7302C92.4265 68.6118 92.1978 68.4705 92.1007 68.3044C92.0035 68.1389 91.9557 67.9612 91.9557 67.7718ZM70.1261 67.9144V45.5644C70.1261 45.1387 70.1812 44.8541 70.2918 44.7128C70.5138 44.4524 70.9431 44.3222 71.5807 44.3222H85.2115C85.8487 44.3222 86.2503 44.4231 86.4172 44.6243C86.5831 44.8253 86.6662 45.1387 86.6662 45.5644V48.0827C86.6662 48.3431 86.5623 48.5501 86.3542 48.7038C86.147 48.8575 85.8212 48.9343 85.3784 48.9343H77.0246C76.5251 48.9343 76.2757 49.1239 76.2757 49.5016V53.2271C76.2757 53.6528 76.4295 53.8658 76.7341 53.8658H83.3005C83.5775 53.8658 83.8062 53.9245 83.986 54.0429C84.1659 54.1609 84.2557 54.3267 84.2557 54.5398V57.7683C84.2557 58.2405 83.9793 58.4769 83.4252 58.4769H76.8172C76.4571 58.4769 76.2757 58.6786 76.2757 59.0811V64.1181C76.2757 64.4019 76.4295 64.5438 76.7341 64.5438H86.0841C86.5555 64.5438 86.8599 64.6207 86.9983 64.7743C87.137 64.9287 87.2071 65.1474 87.2071 65.4308V67.9144C87.2071 68.3401 87.1504 68.6235 87.0398 68.7655C86.8185 69.0259 86.3887 69.1561 85.752 69.1561H71.5807C71.0813 69.1561 70.7498 69.1093 70.5825 69.0143C70.2788 68.8247 70.1261 68.4587 70.1261 67.9144ZM52.8252 49.4664V53.7948C52.8252 54.149 53.0195 54.3267 53.4072 54.3267H55.3608C56.5245 54.3267 57.4527 54.0787 58.1449 53.5818C58.8381 53.0856 59.1843 52.4235 59.1843 51.5951C59.1843 50.8378 58.9203 50.2237 58.3938 49.7503C57.7292 49.159 56.7183 48.8628 55.3608 48.8628H53.532C53.0612 48.8628 52.8252 49.064 52.8252 49.4664ZM48.1297 44.3222H55.8171C59.3371 44.3222 61.9684 45.0905 63.714 46.6279C65.1265 47.858 65.8333 49.4072 65.8333 51.2754C65.8333 52.9789 65.3626 54.3972 64.4208 55.5335C63.6725 56.4554 62.7447 57.0826 61.6358 57.4134C61.3863 57.4603 61.2631 57.5671 61.2631 57.733C61.2631 57.8745 61.3312 58.0639 61.4705 58.3002L66.6644 67.8785C66.748 68.0681 66.7897 68.234 66.7897 68.3755C66.7897 68.8963 66.4575 69.1561 65.7928 69.1561H61.4705C60.8598 69.1561 60.4311 69.0494 60.1816 68.8364C60.099 68.7655 60.0018 68.6235 59.8905 68.4106L54.9456 59.1872C54.7508 58.8558 54.4607 58.6898 54.073 58.6898H53.2836C52.979 58.6898 52.8252 58.8329 52.8252 59.1162V67.9144C52.8252 68.4587 52.7078 68.8012 52.4735 68.9432C52.237 69.0846 51.87 69.1561 51.3711 69.1561H48.1297C47.6308 69.1561 47.2986 69.1093 47.1313 69.0143C46.8267 68.8247 46.6756 68.4587 46.6756 67.9144V45.5644C46.6756 45.1387 46.7306 44.8541 46.8413 44.7128C47.0632 44.4524 47.4926 44.3222 48.1297 44.3222ZM26.6738 67.9144V45.5644C26.6738 45.1387 26.7289 44.8541 26.8402 44.7128C27.062 44.4524 27.4908 44.3222 28.1289 44.3222H41.3029C41.9401 44.3222 42.3418 44.4231 42.5076 44.6243C42.674 44.8253 42.7571 45.1387 42.7571 45.5644V48.2955C42.7571 48.5561 42.6531 48.7624 42.4458 48.9168C42.2379 49.0698 41.9125 49.1474 41.4686 49.1474H33.5728C33.074 49.1474 32.824 49.3368 32.824 49.7146V53.4399C32.824 53.8658 32.9773 54.0787 33.2819 54.0787H39.8487C40.1257 54.0787 40.3544 54.1374 40.5343 54.2559C40.7141 54.3737 40.8039 54.5398 40.8039 54.7527V57.9812C40.8039 58.454 40.5264 58.6898 39.9735 58.6898H33.3654C33.0048 58.6898 32.824 58.891 32.824 59.2934V67.9144C32.824 68.4587 32.707 68.8012 32.4722 68.9432C32.2362 69.0846 31.8693 69.1561 31.3699 69.1561H28.1289C27.6301 69.1561 27.298 69.1093 27.1307 69.0143C26.8261 68.8247 26.6738 68.4587 26.6738 67.9144ZM104.918 34.5304V37.3401C104.918 37.719 104.817 37.9612 104.618 38.0668C104.418 38.1717 104.144 38.2246 103.797 38.2246H100.234C99.7544 38.2246 99.4467 38.1454 99.3136 37.987C99.1801 37.8299 99.113 37.6141 99.113 37.3401V34.5304C99.113 34.1514 99.2144 33.9092 99.4139 33.8036C99.614 33.6986 99.8879 33.6458 100.234 33.6458H103.797C104.278 33.6458 104.585 33.7245 104.717 33.8822C104.851 34.0405 104.918 34.2564 104.918 34.5304ZM93.2305 29.3197V37.3401C93.2305 37.719 93.1302 37.9612 92.9296 38.0668C92.7295 38.1717 92.4567 38.2246 92.109 38.2246H88.9072C88.427 38.2246 88.1197 38.1454 87.9862 37.987C87.8532 37.8299 87.7867 37.6141 87.7867 37.3401V21.5511C87.7867 21.1722 87.8859 20.93 88.0854 20.8256C88.2794 20.7199 88.5537 20.6666 88.8993 20.6666H92.5159C92.9904 20.6666 93.2305 20.8143 93.2305 21.1095V21.4566C93.2305 21.5412 93.2971 21.6249 93.4301 21.7095L93.9976 21.4255C94.5573 21.0883 95.0189 20.8572 95.3649 20.7305C95.986 20.5199 96.739 20.4148 97.6261 20.4148C98.0274 20.4148 98.3282 20.4624 98.534 20.5569C98.7352 20.6519 98.835 20.8572 98.835 21.1722V24.2352C98.835 24.4887 98.7352 24.6565 98.534 24.741C98.334 24.8249 98.1141 24.8676 97.8746 24.8676H97.1132C96.4724 24.8676 95.9656 24.9303 95.5909 25.057C95.2184 25.1826 94.8442 25.3932 94.4715 25.6882C93.8838 26.1516 93.5298 26.6561 93.4098 27.2034C93.2897 27.7512 93.2305 28.4557 93.2305 29.3197ZM68.251 25.5304V37.1196C68.251 37.6035 68.1372 37.9085 67.9111 38.0352C67.6835 38.1619 67.3306 38.2246 66.8504 38.2246H63.7275C63.2473 38.2246 62.9272 38.1824 62.7671 38.0979C62.4735 37.9296 62.3274 37.6035 62.3274 37.1196V17.2251C62.3274 16.8462 62.3799 16.5932 62.486 16.4673C62.7001 16.2355 63.1149 16.12 63.7275 16.12H67.2907C67.6913 16.12 68.038 16.2255 68.331 16.4362C68.4916 16.5411 68.6253 16.6883 68.7317 16.8778L73.0546 23.6992C73.1092 23.8036 73.182 23.9192 73.2755 24.0458C73.368 24.1725 73.4553 24.2352 73.5343 24.2352C73.6425 24.2352 73.7417 24.1568 73.8351 23.9988C73.9292 23.8405 73.9755 23.7513 73.9755 23.7296L78.2989 16.9722C78.5119 16.6567 78.7386 16.4362 78.9802 16.3094C79.2199 16.1827 79.4994 16.12 79.8206 16.12H83.1831C83.7959 16.12 84.1835 16.2097 84.343 16.3887C84.5036 16.5675 84.5831 16.8462 84.5831 17.2251V37.1196C84.5831 37.6035 84.4709 37.9085 84.2438 38.0352C84.0172 38.1619 83.6628 38.2246 83.1831 38.2246H80.0606C79.4465 38.2246 79.0597 38.1348 78.8992 37.9566C78.7386 37.7771 78.6591 37.4985 78.6591 37.1196V25.8777C78.606 25.7511 78.5531 25.6882 78.4985 25.6882L78.3784 25.7511L75.2561 31.6878C75.0971 32.0245 74.937 32.2457 74.776 32.3506C74.6154 32.4562 74.4156 32.509 74.1756 32.509H72.8145C72.3603 32.509 72.0002 32.2351 71.7335 31.6878L68.5317 25.4988C68.4246 25.5198 68.331 25.5304 68.251 25.5304Z" fill="#5C5967"/>
</g>
<defs>
<filter id="filter0_d" x="0" y="0" width="159.162" height="101" filterUnits="userSpaceOnUse" color-interpolation-filters="sRGB">
<feFlood flood-opacity="0" result="BackgroundImageFix"/>
<feColorMatrix in="SourceAlpha" type="matrix" values="0 0 0 0 0 0 0 0 0 0 0 0 0 0 0 0 0 0 127 0"/>
<feOffset dy="4"/>
<feGaussianBlur stdDeviation="2"/>
<feColorMatrix type="matrix" values="0 0 0 0 0 0 0 0 0 0 0 0 0 0 0 0 0 0 0.25 0"/>
<feBlend mode="normal" in2="BackgroundImageFix" result="effect1_dropShadow"/>
<feBlend mode="normal" in="SourceGraphic" in2="effect1_dropShadow" result="shape"/>
</filter>
</defs>
</svg>
